<svg xmlns="http://www.w3.org/2000/svg" viewBox="0 0 32 32" fill="none">
  <defs>
    <linearGradient id="faviconGradient" x1="0%" y1="0%" x2="100%" y2="100%">
      <stop offset="0%" style="stop-color:#007AFF;stop-opacity:1" />
      <stop offset="50%" style="stop-color:#5856D6;stop-opacity:1" />
      <stop offset="100%" style="stop-color:#007AFF;stop-opacity:1" />
    </linearGradient>
  </defs>
  <rect width="32" height="32" rx="6" fill="url(#faviconGradient)"/>
  <path d="M23 14L11 19L8 17L9 16L12 16.5L15 12.5L14 12L13 11L14 10L16 11L19 7C19.5 6.5 20 6.5 20.5 7C21 7.5 21 8 20.5 8.5L17.5 11.5L18.5 13.5L21.5 13L23 14Z" fill="white" stroke="white" stroke-width="0.3" stroke-linejoin="round"/>
  <path d="M11 19L10 21C9.75 21.5 9.5 21.75 9 21.5L8 21L8.5 19L11 19Z" fill="white" opacity="0.8"/>
</svg>
